<svg xmlns="http://www.w3.org/2000/svg" width="500" height="500"><defs><clipPath id="clip-path-dot-color"><rect x="19" y="131" width="14" height="14" transform="rotate(0,26,138)"/><rect x="19" y="145" width="14" height="14" transform="rotate(0,26,152)"/><rect x="19" y="173" width="14" height="14" transform="rotate(0,26,180)"/><rect x="19" y="187" width="14" height="14" transform="rotate(0,26,194)"/><rect x="19" y="201" width="14" height="14" transform="rotate(0,26,208)"/><rect x="19" y="215" width="14" height="14" transform="rotate(0,26,222)"/><rect x="19" y="229" width="14" height="14" transform="rotate(0,26,236)"/><rect x="19" y="271" width="14" height="14" transform="rotate(0,26,278)"/><rect x="19" y="327" width="14" height="14" transform="rotate(0,26,334)"/><rect x="19" y="341" width="14" height="14" transform="rotate(0,26,348)"/><rect x="19" y="355" width="14" height="14" transform="rotate(0,26,362)"/><rect x="33" y="145" width="14" height="14" transform="rotate(0,40,152)"/><rect x="33" y="159" width="14" height="14" transform="rotate(0,40,166)"/><rect x="33" y="187" width="14" height="14" transform="rotate(0,40,194)"/><rect x="33" y="243" width="14" height="14" transform="rotate(0,40,250)"/><rect x="33" y="257" width="14" height="14" transform="rotate(0,40,264)"/><rect x="33" y="313" width="14" height="14" transform="rotate(0,40,320)"/><rect x="33" y="327" width="14" height="14" transform="rotate(0,40,334)"/><rect x="33" y="341" width="14" height="14" transform="rotate(0,40,348)"/><rect x="33" y="355" width="14" height="14" transform="rotate(0,40,362)"/><rect x="47" y="131" width="14" height="14" transform="rotate(0,54,138)"/><rect x="47" y="145" width="14" height="14" transform="rotate(0,54,152)"/><rect x="47" y="173" width="14" height="14" transform="rotate(0,54,180)"/><rect x="47" y="187" width="14" height="14" transform="rotate(0,54,194)"/><rect x="47" y="229" width="14" height="14" transform="rotate(0,54,236)"/><rect x="47" y="243" width="14" height="14" transform="rotate(0,54,250)"/><rect x="47" y="257" width="14" height="14" transform="rotate(0,54,264)"/><rect x="47" y="285" width="14" height="14" transform="rotate(0,54,292)"/><rect x="47" y="299" width="14" height="14" transform="rotate(0,54,306)"/><rect x="47" y="355" width="14" height="14" transform="rotate(0,54,362)"/><rect x="61" y="131" width="14" height="14" transform="rotate(0,68,138)"/><rect x="61" y="145" width="14" height="14" transform="rotate(0,68,152)"/><rect x="61" y="173" width="14" height="14" transform="rotate(0,68,180)"/><rect x="61" y="201" width="14" height="14" transform="rotate(0,68,208)"/><rect x="61" y="215" width="14" height="14" transform="rotate(0,68,222)"/><rect x="61" y="229" width="14" height="14" transform="rotate(0,68,236)"/><rect x="61" y="257" width="14" height="14" transform="rotate(0,68,264)"/><rect x="61" y="285" width="14" height="14" transform="rotate(0,68,292)"/><rect x="61" y="313" width="14" height="14" transform="rotate(0,68,320)"/><rect x="61" y="341" width="14" height="14" transform="rotate(0,68,348)"/><rect x="75" y="145" width="14" height="14" transform="rotate(0,82,152)"/><rect x="75" y="159" width="14" height="14" transform="rotate(0,82,166)"/><rect x="75" y="173" width="14" height="14" transform="rotate(0,82,180)"/><rect x="75" y="187" width="14" height="14" transform="rotate(0,82,194)"/><rect x="75" y="215" width="14" height="14" transform="rotate(0,82,222)"/><rect x="75" y="243" width="14" height="14" transform="rotate(0,82,250)"/><rect x="75" y="285" width="14" height="14" transform="rotate(0,82,292)"/><rect x="75" y="313" width="14" height="14" transform="rotate(0,82,320)"/><rect x="75" y="327" width="14" height="14" transform="rotate(0,82,334)"/><rect x="89" y="131" width="14" height="14" transform="rotate(0,96,138)"/><rect x="89" y="159" width="14" height="14" transform="rotate(0,96,166)"/><rect x="89" y="187" width="14" height="14" transform="rotate(0,96,194)"/><rect x="89" y="201" width="14" height="14" transform="rotate(0,96,208)"/><rect x="89" y="229" width="14" height="14" transform="rotate(0,96,236)"/><rect x="89" y="257" width="14" height="14" transform="rotate(0,96,264)"/><rect x="89" y="271" width="14" height="14" transform="rotate(0,96,278)"/><rect x="89" y="299" width="14" height="14" transform="rotate(0,96,306)"/><rect x="89" y="327" width="14" height="14" transform="rotate(0,96,334)"/><rect x="89" y="341" width="14" height="14" transform="rotate(0,96,348)"/><rect x="103" y="131" width="14" height="14" transform="rotate(0,110,138)"/><rect x="103" y="159" width="14" height="14" transform="rotate(0,110,166)"/><rect x="103" y="187" width="14" height="14" transform="rotate(0,110,194)"/><rect x="103" y="215" width="14" height="14" transform="rotate(0,110,222)"/><rect x="103" y="243" width="14" height="14" transform="rotate(0,110,250)"/><rect x="103" y="271" width="14" height="14" transform="rotate(0,110,278)"/><rect x="103" y="299" width="14" height="14" transform="rotate(0,110,306)"/><rect x="103" y="327" width="14" height="14" transform="rotate(0,110,334)"/><rect x="103" y="355" width="14" height="14" transform="rotate(0,110,362)"/><rect x="117" y="131" width="14" height="14" transform="rotate(0,124,138)"/><rect x="117" y="145" width="14" height="14" transform="rotate(0,124,152)"/><rect x="117" y="257" width="14" height="14" transform="rotate(0,124,264)"/><rect x="117" y="271" width="14" height="14" transform="rotate(0,124,278)"/><rect x="117" y="285" width="14" height="14" transform="rotate(0,124,292)"/><rect x="117" y="299" width="14" height="14" transform="rotate(0,124,306)"/><rect x="117" y="313" width="14" height="14" transform="rotate(0,124,320)"/><rect x="117" y="327" width="14" height="14" transform="rotate(0,124,334)"/><rect x="117" y="355" width="14" height="14" transform="rotate(0,124,362)"/><rect x="131" y="33" width="14" height="14" transform="rotate(0,138,40)"/><rect x="131" y="61" width="14" height="14" transform="rotate(0,138,68)"/><rect x="131" y="89" width="14" height="14" transform="rotate(0,138,96)"/><rect x="131" y="103" width="14" height="14" transform="rotate(0,138,110)"/><rect x="131" y="117" width="14" height="14" transform="rotate(0,138,124)"/><rect x="131" y="131" width="14" height="14" transform="rotate(0,138,138)"/><rect x="131" y="145" width="14" height="14" transform="rotate(0,138,152)"/><rect x="131" y="173" width="14" height="14" transform="rotate(0,138,180)"/><rect x="131" y="201" width="14" height="14" transform="rotate(0,138,208)"/><rect x="131" y="243" width="14" height="14" transform="rotate(0,138,250)"/><rect x="131" y="257" width="14" height="14" transform="rotate(0,138,264)"/><rect x="131" y="285" width="14" height="14" transform="rotate(0,138,292)"/><rect x="131" y="299" width="14" height="14" transform="rotate(0,138,306)"/><rect x="131" y="313" width="14" height="14" transform="rotate(0,138,320)"/><rect x="131" y="369" width="14" height="14" transform="rotate(0,138,376)"/><rect x="131" y="383" width="14" height="14" transform="rotate(0,138,390)"/><rect x="131" y="397" width="14" height="14" transform="rotate(0,138,404)"/><rect x="131" y="425" width="14" height="14" transform="rotate(0,138,432)"/><rect x="131" y="439" width="14" height="14" transform="rotate(0,138,446)"/><rect x="131" y="467" width="14" height="14" transform="rotate(0,138,474)"/><rect x="145" y="33" width="14" height="14" transform="rotate(0,152,40)"/><rect x="145" y="47" width="14" height="14" transform="rotate(0,152,54)"/><rect x="145" y="61" width="14" height="14" transform="rotate(0,152,68)"/><rect x="145" y="89" width="14" height="14" transform="rotate(0,152,96)"/><rect x="145" y="131" width="14" height="14" transform="rotate(0,152,138)"/><rect x="145" y="145" width="14" height="14" transform="rotate(0,152,152)"/><rect x="145" y="173" width="14" height="14" transform="rotate(0,152,180)"/><rect x="145" y="187" width="14" height="14" transform="rotate(0,152,194)"/><rect x="145" y="201" width="14" height="14" transform="rotate(0,152,208)"/><rect x="145" y="271" width="14" height="14" transform="rotate(0,152,278)"/><rect x="145" y="355" width="14" height="14" transform="rotate(0,152,362)"/><rect x="145" y="369" width="14" height="14" transform="rotate(0,152,376)"/><rect x="145" y="383" width="14" height="14" transform="rotate(0,152,390)"/><rect x="145" y="397" width="14" height="14" transform="rotate(0,152,404)"/><rect x="159" y="33" width="14" height="14" transform="rotate(0,166,40)"/><rect x="159" y="47" width="14" height="14" transform="rotate(0,166,54)"/><rect x="159" y="103" width="14" height="14" transform="rotate(0,166,110)"/><rect x="159" y="117" width="14" height="14" transform="rotate(0,166,124)"/><rect x="159" y="131" width="14" height="14" transform="rotate(0,166,138)"/><rect x="159" y="159" width="14" height="14" transform="rotate(0,166,166)"/><rect x="159" y="187" width="14" height="14" transform="rotate(0,166,194)"/><rect x="159" y="215" width="14" height="14" transform="rotate(0,166,222)"/><rect x="159" y="257" width="14" height="14" transform="rotate(0,166,264)"/><rect x="159" y="285" width="14" height="14" transform="rotate(0,166,292)"/><rect x="159" y="313" width="14" height="14" transform="rotate(0,166,320)"/><rect x="159" y="327" width="14" height="14" transform="rotate(0,166,334)"/><rect x="159" y="383" width="14" height="14" transform="rotate(0,166,390)"/><rect x="159" y="397" width="14" height="14" transform="rotate(0,166,404)"/><rect x="159" y="411" width="14" height="14" transform="rotate(0,166,418)"/><rect x="159" y="439" width="14" height="14" transform="rotate(0,166,446)"/><rect x="159" y="467" width="14" height="14" transform="rotate(0,166,474)"/><rect x="173" y="33" width="14" height="14" transform="rotate(0,180,40)"/><rect x="173" y="61" width="14" height="14" transform="rotate(0,180,68)"/><rect x="173" y="89" width="14" height="14" transform="rotate(0,180,96)"/><rect x="173" y="117" width="14" height="14" transform="rotate(0,180,124)"/><rect x="173" y="159" width="14" height="14" transform="rotate(0,180,166)"/><rect x="173" y="215" width="14" height="14" transform="rotate(0,180,222)"/><rect x="173" y="229" width="14" height="14" transform="rotate(0,180,236)"/><rect x="173" y="257" width="14" height="14" transform="rotate(0,180,264)"/><rect x="173" y="355" width="14" height="14" transform="rotate(0,180,362)"/><rect x="173" y="383" width="14" height="14" transform="rotate(0,180,390)"/><rect x="173" y="411" width="14" height="14" transform="rotate(0,180,418)"/><rect x="173" y="425" width="14" height="14" transform="rotate(0,180,432)"/><rect x="187" y="19" width="14" height="14" transform="rotate(0,194,26)"/><rect x="187" y="47" width="14" height="14" transform="rotate(0,194,54)"/><rect x="187" y="103" width="14" height="14" transform="rotate(0,194,110)"/><rect x="187" y="117" width="14" height="14" transform="rotate(0,194,124)"/><rect x="187" y="131" width="14" height="14" transform="rotate(0,194,138)"/><rect x="187" y="187" width="14" height="14" transform="rotate(0,194,194)"/><rect x="187" y="201" width="14" height="14" transform="rotate(0,194,208)"/><rect x="187" y="243" width="14" height="14" transform="rotate(0,194,250)"/><rect x="187" y="341" width="14" height="14" transform="rotate(0,194,348)"/><rect x="187" y="355" width="14" height="14" transform="rotate(0,194,362)"/><rect x="187" y="369" width="14" height="14" transform="rotate(0,194,376)"/><rect x="187" y="383" width="14" height="14" transform="rotate(0,194,390)"/><rect x="187" y="397" width="14" height="14" transform="rotate(0,194,404)"/><rect x="187" y="425" width="14" height="14" transform="rotate(0,194,432)"/><rect x="187" y="467" width="14" height="14" transform="rotate(0,194,474)"/><rect x="201" y="19" width="14" height="14" transform="rotate(0,208,26)"/><rect x="201" y="33" width="14" height="14" transform="rotate(0,208,40)"/><rect x="201" y="47" width="14" height="14" transform="rotate(0,208,54)"/><rect x="201" y="61" width="14" height="14" transform="rotate(0,208,68)"/><rect x="201" y="75" width="14" height="14" transform="rotate(0,208,82)"/><rect x="201" y="89" width="14" height="14" transform="rotate(0,208,96)"/><rect x="201" y="117" width="14" height="14" transform="rotate(0,208,124)"/><rect x="201" y="131" width="14" height="14" transform="rotate(0,208,138)"/><rect x="201" y="145" width="14" height="14" transform="rotate(0,208,152)"/><rect x="201" y="173" width="14" height="14" transform="rotate(0,208,180)"/><rect x="201" y="187" width="14" height="14" transform="rotate(0,208,194)"/><rect x="201" y="215" width="14" height="14" transform="rotate(0,208,222)"/><rect x="201" y="229" width="14" height="14" transform="rotate(0,208,236)"/><rect x="201" y="243" width="14" height="14" transform="rotate(0,208,250)"/><rect x="201" y="257" width="14" height="14" transform="rotate(0,208,264)"/><rect x="201" y="313" width="14" height="14" transform="rotate(0,208,320)"/><rect x="201" y="327" width="14" height="14" transform="rotate(0,208,334)"/><rect x="201" y="341" width="14" height="14" transform="rotate(0,208,348)"/><rect x="201" y="383" width="14" height="14" transform="rotate(0,208,390)"/><rect x="201" y="411" width="14" height="14" transform="rotate(0,208,418)"/><rect x="201" y="425" width="14" height="14" transform="rotate(0,208,432)"/><rect x="201" y="453" width="14" height="14" transform="rotate(0,208,460)"/><rect x="201" y="467" width="14" height="14" transform="rotate(0,208,474)"/><rect x="215" y="47" width="14" height="14" transform="rotate(0,222,54)"/><rect x="215" y="61" width="14" height="14" transform="rotate(0,222,68)"/><rect x="215" y="75" width="14" height="14" transform="rotate(0,222,82)"/><rect x="215" y="89" width="14" height="14" transform="rotate(0,222,96)"/><rect x="215" y="103" width="14" height="14" transform="rotate(0,222,110)"/><rect x="215" y="117" width="14" height="14" transform="rotate(0,222,124)"/><rect x="215" y="131" width="14" height="14" transform="rotate(0,222,138)"/><rect x="215" y="145" width="14" height="14" transform="rotate(0,222,152)"/><rect x="215" y="271" width="14" height="14" transform="rotate(0,222,278)"/><rect x="215" y="299" width="14" height="14" transform="rotate(0,222,306)"/><rect x="215" y="313" width="14" height="14" transform="rotate(0,222,320)"/><rect x="215" y="341" width="14" height="14" transform="rotate(0,222,348)"/><rect x="215" y="369" width="14" height="14" transform="rotate(0,222,376)"/><rect x="215" y="383" width="14" height="14" transform="rotate(0,222,390)"/><rect x="215" y="411" width="14" height="14" transform="rotate(0,222,418)"/><rect x="215" y="453" width="14" height="14" transform="rotate(0,222,460)"/><rect x="229" y="19" width="14" height="14" transform="rotate(0,236,26)"/><rect x="229" y="47" width="14" height="14" transform="rotate(0,236,54)"/><rect x="229" y="89" width="14" height="14" transform="rotate(0,236,96)"/><rect x="229" y="117" width="14" height="14" transform="rotate(0,236,124)"/><rect x="229" y="229" width="14" height="14" transform="rotate(0,236,236)"/><rect x="229" y="257" width="14" height="14" transform="rotate(0,236,264)"/><rect x="229" y="285" width="14" height="14" transform="rotate(0,236,292)"/><rect x="229" y="313" width="14" height="14" transform="rotate(0,236,320)"/><rect x="229" y="327" width="14" height="14" transform="rotate(0,236,334)"/><rect x="229" y="341" width="14" height="14" transform="rotate(0,236,348)"/><rect x="229" y="383" width="14" height="14" transform="rotate(0,236,390)"/><rect x="229" y="397" width="14" height="14" transform="rotate(0,236,404)"/><rect x="229" y="453" width="14" height="14" transform="rotate(0,236,460)"/><rect x="243" y="19" width="14" height="14" transform="rotate(0,250,26)"/><rect x="243" y="75" width="14" height="14" transform="rotate(0,250,82)"/><rect x="243" y="89" width="14" height="14" transform="rotate(0,250,96)"/><rect x="243" y="103" width="14" height="14" transform="rotate(0,250,110)"/><rect x="243" y="117" width="14" height="14" transform="rotate(0,250,124)"/><rect x="243" y="145" width="14" height="14" transform="rotate(0,250,152)"/><rect x="243" y="173" width="14" height="14" transform="rotate(0,250,180)"/><rect x="243" y="187" width="14" height="14" transform="rotate(0,250,194)"/><rect x="243" y="201" width="14" height="14" transform="rotate(0,250,208)"/><rect x="243" y="215" width="14" height="14" transform="rotate(0,250,222)"/><rect x="243" y="229" width="14" height="14" transform="rotate(0,250,236)"/><rect x="243" y="257" width="14" height="14" transform="rotate(0,250,264)"/><rect x="243" y="285" width="14" height="14" transform="rotate(0,250,292)"/><rect x="243" y="299" width="14" height="14" transform="rotate(0,250,306)"/><rect x="243" y="313" width="14" height="14" transform="rotate(0,250,320)"/><rect x="243" y="327" width="14" height="14" transform="rotate(0,250,334)"/><rect x="243" y="341" width="14" height="14" transform="rotate(0,250,348)"/><rect x="243" y="355" width="14" height="14" transform="rotate(0,250,362)"/><rect x="243" y="383" width="14" height="14" transform="rotate(0,250,390)"/><rect x="243" y="411" width="14" height="14" transform="rotate(0,250,418)"/><rect x="243" y="425" width="14" height="14" transform="rotate(0,250,432)"/><rect x="243" y="453" width="14" height="14" transform="rotate(0,250,460)"/><rect x="257" y="19" width="14" height="14" transform="rotate(0,264,26)"/><rect x="257" y="33" width="14" height="14" transform="rotate(0,264,40)"/><rect x="257" y="47" width="14" height="14" transform="rotate(0,264,54)"/><rect x="257" y="89" width="14" height="14" transform="rotate(0,264,96)"/><rect x="257" y="145" width="14" height="14" transform="rotate(0,264,152)"/><rect x="257" y="159" width="14" height="14" transform="rotate(0,264,166)"/><rect x="257" y="173" width="14" height="14" transform="rotate(0,264,180)"/><rect x="257" y="187" width="14" height="14" transform="rotate(0,264,194)"/><rect x="257" y="243" width="14" height="14" transform="rotate(0,264,250)"/><rect x="257" y="271" width="14" height="14" transform="rotate(0,264,278)"/><rect x="257" y="285" width="14" height="14" transform="rotate(0,264,292)"/><rect x="257" y="313" width="14" height="14" transform="rotate(0,264,320)"/><rect x="257" y="341" width="14" height="14" transform="rotate(0,264,348)"/><rect x="257" y="355" width="14" height="14" transform="rotate(0,264,362)"/><rect x="257" y="369" width="14" height="14" transform="rotate(0,264,376)"/><rect x="257" y="397" width="14" height="14" transform="rotate(0,264,404)"/><rect x="257" y="425" width="14" height="14" transform="rotate(0,264,432)"/><rect x="271" y="47" width="14" height="14" transform="rotate(0,278,54)"/><rect x="271" y="61" width="14" height="14" transform="rotate(0,278,68)"/><rect x="271" y="103" width="14" height="14" transform="rotate(0,278,110)"/><rect x="271" y="117" width="14" height="14" transform="rotate(0,278,124)"/><rect x="271" y="145" width="14" height="14" transform="rotate(0,278,152)"/><rect x="271" y="159" width="14" height="14" transform="rotate(0,278,166)"/><rect x="271" y="187" width="14" height="14" transform="rotate(0,278,194)"/><rect x="271" y="215" width="14" height="14" transform="rotate(0,278,222)"/><rect x="271" y="257" width="14" height="14" transform="rotate(0,278,264)"/><rect x="271" y="299" width="14" height="14" transform="rotate(0,278,306)"/><rect x="271" y="327" width="14" height="14" transform="rotate(0,278,334)"/><rect x="271" y="355" width="14" height="14" transform="rotate(0,278,362)"/><rect x="271" y="383" width="14" height="14" transform="rotate(0,278,390)"/><rect x="271" y="439" width="14" height="14" transform="rotate(0,278,446)"/><rect x="271" y="453" width="14" height="14" transform="rotate(0,278,460)"/><rect x="271" y="467" width="14" height="14" transform="rotate(0,278,474)"/><rect x="285" y="19" width="14" height="14" transform="rotate(0,292,26)"/><rect x="285" y="33" width="14" height="14" transform="rotate(0,292,40)"/><rect x="285" y="47" width="14" height="14" transform="rotate(0,292,54)"/><rect x="285" y="61" width="14" height="14" transform="rotate(0,292,68)"/><rect x="285" y="89" width="14" height="14" transform="rotate(0,292,96)"/><rect x="285" y="145" width="14" height="14" transform="rotate(0,292,152)"/><rect x="285" y="159" width="14" height="14" transform="rotate(0,292,166)"/><rect x="285" y="187" width="14" height="14" transform="rotate(0,292,194)"/><rect x="285" y="243" width="14" height="14" transform="rotate(0,292,250)"/><rect x="285" y="271" width="14" height="14" transform="rotate(0,292,278)"/><rect x="285" y="285" width="14" height="14" transform="rotate(0,292,292)"/><rect x="285" y="299" width="14" height="14" transform="rotate(0,292,306)"/><rect x="285" y="313" width="14" height="14" transform="rotate(0,292,320)"/><rect x="285" y="383" width="14" height="14" transform="rotate(0,292,390)"/><rect x="285" y="397" width="14" height="14" transform="rotate(0,292,404)"/><rect x="285" y="467" width="14" height="14" transform="rotate(0,292,474)"/><rect x="299" y="33" width="14" height="14" transform="rotate(0,306,40)"/><rect x="299" y="75" width="14" height="14" transform="rotate(0,306,82)"/><rect x="299" y="89" width="14" height="14" transform="rotate(0,306,96)"/><rect x="299" y="103" width="14" height="14" transform="rotate(0,306,110)"/><rect x="299" y="117" width="14" height="14" transform="rotate(0,306,124)"/><rect x="299" y="131" width="14" height="14" transform="rotate(0,306,138)"/><rect x="299" y="159" width="14" height="14" transform="rotate(0,306,166)"/><rect x="299" y="173" width="14" height="14" transform="rotate(0,306,180)"/><rect x="299" y="201" width="14" height="14" transform="rotate(0,306,208)"/><rect x="299" y="229" width="14" height="14" transform="rotate(0,306,236)"/><rect x="299" y="271" width="14" height="14" transform="rotate(0,306,278)"/><rect x="299" y="327" width="14" height="14" transform="rotate(0,306,334)"/><rect x="299" y="341" width="14" height="14" transform="rotate(0,306,348)"/><rect x="299" y="397" width="14" height="14" transform="rotate(0,306,404)"/><rect x="299" y="411" width="14" height="14" transform="rotate(0,306,418)"/><rect x="299" y="453" width="14" height="14" transform="rotate(0,306,460)"/><rect x="313" y="47" width="14" height="14" transform="rotate(0,320,54)"/><rect x="313" y="61" width="14" height="14" transform="rotate(0,320,68)"/><rect x="313" y="117" width="14" height="14" transform="rotate(0,320,124)"/><rect x="313" y="145" width="14" height="14" transform="rotate(0,320,152)"/><rect x="313" y="159" width="14" height="14" transform="rotate(0,320,166)"/><rect x="313" y="173" width="14" height="14" transform="rotate(0,320,180)"/><rect x="313" y="201" width="14" height="14" transform="rotate(0,320,208)"/><rect x="313" y="243" width="14" height="14" transform="rotate(0,320,250)"/><rect x="313" y="271" width="14" height="14" transform="rotate(0,320,278)"/><rect x="313" y="285" width="14" height="14" transform="rotate(0,320,292)"/><rect x="313" y="299" width="14" height="14" transform="rotate(0,320,306)"/><rect x="313" y="327" width="14" height="14" transform="rotate(0,320,334)"/><rect x="313" y="383" width="14" height="14" transform="rotate(0,320,390)"/><rect x="313" y="425" width="14" height="14" transform="rotate(0,320,432)"/><rect x="313" y="439" width="14" height="14" transform="rotate(0,320,446)"/><rect x="313" y="453" width="14" height="14" transform="rotate(0,320,460)"/><rect x="313" y="467" width="14" height="14" transform="rotate(0,320,474)"/><rect x="327" y="19" width="14" height="14" transform="rotate(0,334,26)"/><rect x="327" y="33" width="14" height="14" transform="rotate(0,334,40)"/><rect x="327" y="61" width="14" height="14" transform="rotate(0,334,68)"/><rect x="327" y="103" width="14" height="14" transform="rotate(0,334,110)"/><rect x="327" y="117" width="14" height="14" transform="rotate(0,334,124)"/><rect x="327" y="173" width="14" height="14" transform="rotate(0,334,180)"/><rect x="327" y="201" width="14" height="14" transform="rotate(0,334,208)"/><rect x="327" y="215" width="14" height="14" transform="rotate(0,334,222)"/><rect x="327" y="299" width="14" height="14" transform="rotate(0,334,306)"/><rect x="327" y="327" width="14" height="14" transform="rotate(0,334,334)"/><rect x="327" y="383" width="14" height="14" transform="rotate(0,334,390)"/><rect x="327" y="439" width="14" height="14" transform="rotate(0,334,446)"/><rect x="327" y="467" width="14" height="14" transform="rotate(0,334,474)"/><rect x="341" y="33" width="14" height="14" transform="rotate(0,348,40)"/><rect x="341" y="75" width="14" height="14" transform="rotate(0,348,82)"/><rect x="341" y="89" width="14" height="14" transform="rotate(0,348,96)"/><rect x="341" y="117" width="14" height="14" transform="rotate(0,348,124)"/><rect x="341" y="131" width="14" height="14" transform="rotate(0,348,138)"/><rect x="341" y="159" width="14" height="14" transform="rotate(0,348,166)"/><rect x="341" y="187" width="14" height="14" transform="rotate(0,348,194)"/><rect x="341" y="201" width="14" height="14" transform="rotate(0,348,208)"/><rect x="341" y="229" width="14" height="14" transform="rotate(0,348,236)"/><rect x="341" y="257" width="14" height="14" transform="rotate(0,348,264)"/><rect x="341" y="313" width="14" height="14" transform="rotate(0,348,320)"/><rect x="341" y="369" width="14" height="14" transform="rotate(0,348,376)"/><rect x="341" y="397" width="14" height="14" transform="rotate(0,348,404)"/><rect x="355" y="19" width="14" height="14" transform="rotate(0,362,26)"/><rect x="355" y="89" width="14" height="14" transform="rotate(0,362,96)"/><rect x="355" y="103" width="14" height="14" transform="rotate(0,362,110)"/><rect x="355" y="117" width="14" height="14" transform="rotate(0,362,124)"/><rect x="355" y="159" width="14" height="14" transform="rotate(0,362,166)"/><rect x="355" y="201" width="14" height="14" transform="rotate(0,362,208)"/><rect x="355" y="257" width="14" height="14" transform="rotate(0,362,264)"/><rect x="355" y="271" width="14" height="14" transform="rotate(0,362,278)"/><rect x="355" y="285" width="14" height="14" transform="rotate(0,362,292)"/><rect x="355" y="313" width="14" height="14" transform="rotate(0,362,320)"/><rect x="355" y="341" width="14" height="14" transform="rotate(0,362,348)"/><rect x="355" y="355" width="14" height="14" transform="rotate(0,362,362)"/><rect x="355" y="369" width="14" height="14" transform="rotate(0,362,376)"/><rect x="355" y="383" width="14" height="14" transform="rotate(0,362,390)"/><rect x="355" y="397" width="14" height="14" transform="rotate(0,362,404)"/><rect x="355" y="411" width="14" height="14" transform="rotate(0,362,418)"/><rect x="355" y="425" width="14" height="14" transform="rotate(0,362,432)"/><rect x="355" y="467" width="14" height="14" transform="rotate(0,362,474)"/><rect x="369" y="131" width="14" height="14" transform="rotate(0,376,138)"/><rect x="369" y="159" width="14" height="14" transform="rotate(0,376,166)"/><rect x="369" y="173" width="14" height="14" transform="rotate(0,376,180)"/><rect x="369" y="187" width="14" height="14" transform="rotate(0,376,194)"/><rect x="369" y="201" width="14" height="14" transform="rotate(0,376,208)"/><rect x="369" y="215" width="14" height="14" transform="rotate(0,376,222)"/><rect x="369" y="243" width="14" height="14" transform="rotate(0,376,250)"/><rect x="369" y="257" width="14" height="14" transform="rotate(0,376,264)"/><rect x="369" y="299" width="14" height="14" transform="rotate(0,376,306)"/><rect x="369" y="327" width="14" height="14" transform="rotate(0,376,334)"/><rect x="369" y="355" width="14" height="14" transform="rotate(0,376,362)"/><rect x="369" y="411" width="14" height="14" transform="rotate(0,376,418)"/><rect x="369" y="425" width="14" height="14" transform="rotate(0,376,432)"/><rect x="369" y="453" width="14" height="14" transform="rotate(0,376,460)"/><rect x="383" y="131" width="14" height="14" transform="rotate(0,390,138)"/><rect x="383" y="145" width="14" height="14" transform="rotate(0,390,152)"/><rect x="383" y="159" width="14" height="14" transform="rotate(0,390,166)"/><rect x="383" y="187" width="14" height="14" transform="rotate(0,390,194)"/><rect x="383" y="201" width="14" height="14" transform="rotate(0,390,208)"/><rect x="383" y="215" width="14" height="14" transform="rotate(0,390,222)"/><rect x="383" y="257" width="14" height="14" transform="rotate(0,390,264)"/><rect x="383" y="271" width="14" height="14" transform="rotate(0,390,278)"/><rect x="383" y="299" width="14" height="14" transform="rotate(0,390,306)"/><rect x="383" y="313" width="14" height="14" transform="rotate(0,390,320)"/><rect x="383" y="355" width="14" height="14" transform="rotate(0,390,362)"/><rect x="383" y="383" width="14" height="14" transform="rotate(0,390,390)"/><rect x="383" y="411" width="14" height="14" transform="rotate(0,390,418)"/><rect x="383" y="425" width="14" height="14" transform="rotate(0,390,432)"/><rect x="383" y="439" width="14" height="14" transform="rotate(0,390,446)"/><rect x="383" y="453" width="14" height="14" transform="rotate(0,390,460)"/><rect x="397" y="131" width="14" height="14" transform="rotate(0,404,138)"/><rect x="397" y="145" width="14" height="14" transform="rotate(0,404,152)"/><rect x="397" y="173" width="14" height="14" transform="rotate(0,404,180)"/><rect x="397" y="187" width="14" height="14" transform="rotate(0,404,194)"/><rect x="397" y="201" width="14" height="14" transform="rotate(0,404,208)"/><rect x="397" y="215" width="14" height="14" transform="rotate(0,404,222)"/><rect x="397" y="229" width="14" height="14" transform="rotate(0,404,236)"/><rect x="397" y="257" width="14" height="14" transform="rotate(0,404,264)"/><rect x="397" y="299" width="14" height="14" transform="rotate(0,404,306)"/><rect x="397" y="355" width="14" height="14" transform="rotate(0,404,362)"/><rect x="397" y="411" width="14" height="14" transform="rotate(0,404,418)"/><rect x="397" y="453" width="14" height="14" transform="rotate(0,404,460)"/><rect x="411" y="159" width="14" height="14" transform="rotate(0,418,166)"/><rect x="411" y="173" width="14" height="14" transform="rotate(0,418,180)"/><rect x="411" y="187" width="14" height="14" transform="rotate(0,418,194)"/><rect x="411" y="229" width="14" height="14" transform="rotate(0,418,236)"/><rect x="411" y="243" width="14" height="14" transform="rotate(0,418,250)"/><rect x="411" y="327" width="14" height="14" transform="rotate(0,418,334)"/><rect x="411" y="355" width="14" height="14" transform="rotate(0,418,362)"/><rect x="411" y="369" width="14" height="14" transform="rotate(0,418,376)"/><rect x="411" y="383" width="14" height="14" transform="rotate(0,418,390)"/><rect x="411" y="397" width="14" height="14" transform="rotate(0,418,404)"/><rect x="411" y="411" width="14" height="14" transform="rotate(0,418,418)"/><rect x="411" y="425" width="14" height="14" transform="rotate(0,418,432)"/><rect x="411" y="453" width="14" height="14" transform="rotate(0,418,460)"/><rect x="411" y="467" width="14" height="14" transform="rotate(0,418,474)"/><rect x="425" y="131" width="14" height="14" transform="rotate(0,432,138)"/><rect x="425" y="159" width="14" height="14" transform="rotate(0,432,166)"/><rect x="425" y="187" width="14" height="14" transform="rotate(0,432,194)"/><rect x="425" y="201" width="14" height="14" transform="rotate(0,432,208)"/><rect x="425" y="229" width="14" height="14" transform="rotate(0,432,236)"/><rect x="425" y="243" width="14" height="14" transform="rotate(0,432,250)"/><rect x="425" y="257" width="14" height="14" transform="rotate(0,432,264)"/><rect x="425" y="271" width="14" height="14" transform="rotate(0,432,278)"/><rect x="425" y="285" width="14" height="14" transform="rotate(0,432,292)"/><rect x="425" y="299" width="14" height="14" transform="rotate(0,432,306)"/><rect x="425" y="313" width="14" height="14" transform="rotate(0,432,320)"/><rect x="425" y="341" width="14" height="14" transform="rotate(0,432,348)"/><rect x="425" y="355" width="14" height="14" transform="rotate(0,432,362)"/><rect x="425" y="383" width="14" height="14" transform="rotate(0,432,390)"/><rect x="425" y="411" width="14" height="14" transform="rotate(0,432,418)"/><rect x="425" y="453" width="14" height="14" transform="rotate(0,432,460)"/><rect x="439" y="145" width="14" height="14" transform="rotate(0,446,152)"/><rect x="439" y="159" width="14" height="14" transform="rotate(0,446,166)"/><rect x="439" y="187" width="14" height="14" transform="rotate(0,446,194)"/><rect x="439" y="201" width="14" height="14" transform="rotate(0,446,208)"/><rect x="439" y="215" width="14" height="14" transform="rotate(0,446,222)"/><rect x="439" y="229" width="14" height="14" transform="rotate(0,446,236)"/><rect x="439" y="257" width="14" height="14" transform="rotate(0,446,264)"/><rect x="439" y="271" width="14" height="14" transform="rotate(0,446,278)"/><rect x="439" y="341" width="14" height="14" transform="rotate(0,446,348)"/><rect x="439" y="411" width="14" height="14" transform="rotate(0,446,418)"/><rect x="439" y="425" width="14" height="14" transform="rotate(0,446,432)"/><rect x="439" y="439" width="14" height="14" transform="rotate(0,446,446)"/><rect x="439" y="467" width="14" height="14" transform="rotate(0,446,474)"/><rect x="453" y="131" width="14" height="14" transform="rotate(0,460,138)"/><rect x="453" y="145" width="14" height="14" transform="rotate(0,460,152)"/><rect x="453" y="159" width="14" height="14" transform="rotate(0,460,166)"/><rect x="453" y="173" width="14" height="14" transform="rotate(0,460,180)"/><rect x="453" y="187" width="14" height="14" transform="rotate(0,460,194)"/><rect x="453" y="243" width="14" height="14" transform="rotate(0,460,250)"/><rect x="453" y="257" width="14" height="14" transform="rotate(0,460,264)"/><rect x="453" y="313" width="14" height="14" transform="rotate(0,460,320)"/><rect x="453" y="341" width="14" height="14" transform="rotate(0,460,348)"/><rect x="453" y="355" width="14" height="14" transform="rotate(0,460,362)"/><rect x="453" y="383" width="14" height="14" transform="rotate(0,460,390)"/><rect x="467" y="145" width="14" height="14" transform="rotate(0,474,152)"/><rect x="467" y="159" width="14" height="14" transform="rotate(0,474,166)"/><rect x="467" y="201" width="14" height="14" transform="rotate(0,474,208)"/><rect x="467" y="215" width="14" height="14" transform="rotate(0,474,222)"/><rect x="467" y="243" width="14" height="14" transform="rotate(0,474,250)"/><rect x="467" y="271" width="14" height="14" transform="rotate(0,474,278)"/><rect x="467" y="313" width="14" height="14" transform="rotate(0,474,320)"/><rect x="467" y="327" width="14" height="14" transform="rotate(0,474,334)"/><rect x="467" y="355" width="14" height="14" transform="rotate(0,474,362)"/><rect x="467" y="411" width="14" height="14" transform="rotate(0,474,418)"/><rect x="467" y="453" width="14" height="14" transform="rotate(0,474,460)"/></clipPath><clipPath id="clip-path-corners-square-color-0-0"><path clip-rule="evenodd" d="M 19 19v 98h 98v -98zM 33 33h 70v 70h -70z" transform="rotate(0,68,68)"/></clipPath><clipPath id="clip-path-corners-dot-color-0-0"><rect x="47" y="47" width="42" height="42" transform="rotate(0,68,68)"/></clipPath><clipPath id="clip-path-corners-square-color-1-0"><path clip-rule="evenodd" d="M 383 19v 98h 98v -98zM 397 33h 70v 70h -70z" transform="rotate(90,432,68)"/></clipPath><clipPath id="clip-path-corners-dot-color-1-0"><rect x="411" y="47" width="42" height="42" transform="rotate(90,432,68)"/></clipPath><clipPath id="clip-path-corners-square-color-0-1"><path clip-rule="evenodd" d="M 19 383v 98h 98v -98zM 33 397h 70v 70h -70z" transform="rotate(-90,68,432)"/></clipPath><clipPath id="clip-path-corners-dot-color-0-1"><rect x="47" y="411" width="42" height="42" transform="rotate(-90,68,432)"/></clipPath></defs><rect x="0" y="0" height="500" width="500" clip-path="url('#clip-path-background-color')" fill="#fff"/><rect x="0" y="0" height="500" width="500" clip-path="url('#clip-path-dot-color')" fill="#D75827"/><rect x="19" y="19" height="98" width="98" clip-path="url('#clip-path-corners-square-color-0-0')" fill="#D75827"/><rect x="47" y="47" height="42" width="42" clip-path="url('#clip-path-corners-dot-color-0-0')" fill="#D75827"/><rect x="383" y="19" height="98" width="98" clip-path="url('#clip-path-corners-square-color-1-0')" fill="#D75827"/><rect x="411" y="47" height="42" width="42" clip-path="url('#clip-path-corners-dot-color-1-0')" fill="#D75827"/><rect x="19" y="383" height="98" width="98" clip-path="url('#clip-path-corners-square-color-0-1')" fill="#D75827"/><rect x="47" y="411" height="42" width="42" clip-path="url('#clip-path-corners-dot-color-0-1')" fill="#D75827"/></svg>